<svg xmlns="http://www.w3.org/2000/svg" xmlns:xlink="http://www.w3.org/1999/xlink" width="500" zoomAndPan="magnify" viewBox="0 0 375 374.999991" height="500" preserveAspectRatio="xMidYMid meet" version="1.0"><path fill="#fdb708" d="M 370.507812 188.125 C 370.351562 186.40625 370.507812 180.316406 369.570312 170.632812 C 369.101562 165.792969 368.320312 160.015625 367.070312 153.613281 C 366.757812 152.050781 366.445312 150.332031 365.976562 148.613281 C 365.507812 146.898438 365.195312 145.179688 364.726562 143.304688 C 364.257812 141.429688 363.632812 139.714844 363.164062 137.683594 C 362.695312 135.808594 362.070312 133.78125 361.445312 131.90625 C 360.820312 129.875 360.039062 128 359.414062 125.816406 C 358.632812 123.785156 357.851562 121.753906 356.914062 119.570312 C 356.132812 117.382812 355.195312 115.351562 354.101562 113.164062 C 353.164062 110.980469 352.226562 108.792969 350.976562 106.605469 C 346.605469 97.863281 341.136719 88.804688 334.574219 79.902344 C 327.855469 71 320.046875 62.101562 310.828125 53.667969 C 301.613281 45.390625 291.144531 37.582031 279.425781 30.710938 C 267.710938 23.996094 254.746094 18.0625 240.839844 14 C 226.9375 9.941406 212.09375 7.128906 196.785156 6.507812 C 192.878906 6.507812 189.128906 6.195312 185.226562 6.351562 C 183.351562 6.351562 181.320312 6.507812 179.445312 6.507812 C 177.570312 6.660156 175.539062 6.816406 173.507812 6.972656 C 169.601562 7.128906 165.695312 7.910156 161.792969 8.222656 C 159.761719 8.535156 157.886719 8.847656 155.855469 9.160156 C 153.824219 9.472656 151.949219 9.785156 149.917969 10.253906 C 147.886719 10.722656 146.011719 11.191406 143.980469 11.660156 C 141.949219 12.128906 140.078125 12.753906 138.203125 13.222656 C 134.296875 14.3125 130.390625 15.71875 126.640625 16.96875 C 118.984375 19.9375 111.332031 23.058594 103.988281 26.964844 C 74.617188 42.421875 48.683594 66.941406 31.34375 97.082031 C 29.15625 100.828125 27.125 104.734375 25.25 108.636719 C 23.535156 112.542969 21.503906 116.601562 20.097656 120.660156 C 18.378906 124.722656 17.128906 128.9375 15.722656 133 C 15.097656 135.027344 14.472656 137.214844 13.847656 139.246094 C 13.535156 140.339844 13.222656 141.277344 12.910156 142.367188 L 12.128906 145.648438 C 8.066406 162.671875 6.660156 180.472656 7.597656 197.964844 C 8.066406 206.707031 9.316406 215.453125 11.035156 224.042969 C 12.910156 232.632812 15.253906 241.0625 18.222656 249.339844 C 21.347656 257.617188 24.785156 265.582031 29 273.234375 C 33.21875 280.886719 37.75 288.226562 42.90625 295.253906 C 63.371094 323.050781 91.648438 344.289062 122.265625 356.3125 C 137.578125 362.402344 153.355469 366.152344 169.132812 367.871094 C 184.914062 369.585938 200.378906 369.117188 215.21875 367.089844 C 245.058594 362.714844 271.929688 351.316406 293.332031 336.167969 C 314.890625 321.175781 331.136719 302.75 342.542969 284.945312 C 348.320312 276.046875 352.851562 267.144531 356.445312 258.710938 C 360.039062 250.277344 362.695312 242.15625 364.726562 234.816406 C 368.789062 220.136719 370.039062 208.113281 370.507812 199.992188 C 370.660156 197.964844 370.816406 196.089844 370.816406 194.527344 C 370.816406 192.964844 370.816406 191.714844 370.972656 190.625 C 370.972656 188.59375 371.128906 187.5 371.128906 187.5 C 372.066406 203.273438 371.128906 219.203125 368.007812 234.972656 C 364.882812 250.746094 359.726562 266.207031 352.539062 280.886719 C 341.136719 300.40625 326.292969 317.898438 308.953125 332.109375 C 291.457031 346.320312 271.460938 357.40625 250.214844 364.589844 C 239.589844 368.183594 228.5 370.835938 217.40625 372.398438 C 206.316406 373.960938 195.066406 374.585938 183.820312 374.117188 C 161.480469 373.335938 139.140625 368.648438 118.515625 359.90625 C 77.117188 342.726562 42.4375 310.089844 23.066406 269.953125 C 13.222656 249.964844 7.128906 228.101562 5.097656 205.925781 C 3.066406 183.753906 4.941406 161.421875 10.722656 139.871094 C 16.503906 118.476562 26.34375 98.175781 39.3125 80.214844 C 52.277344 62.257812 68.527344 46.796875 86.960938 34.460938 C 123.203125 10.722656 168.976562 0.414062 212.5625 6.507812 C 234.277344 9.472656 255.683594 16.34375 274.898438 26.808594 C 294.269531 37.269531 311.609375 51.324219 325.824219 67.722656 C 340.199219 84.277344 351.601562 103.328125 359.101562 123.941406 C 366.757812 144.554688 370.507812 166.417969 370.507812 188.125 Z M 370.507812 188.125 " fill-opacity="1" fill-rule="nonzero"/><path fill="#fdb708" d="M 363.632812 188.125 C 363.476562 186.40625 363.632812 180.628906 362.695312 171.414062 C 362.226562 166.730469 361.601562 161.265625 360.351562 155.019531 C 360.039062 153.457031 359.726562 151.894531 359.414062 150.175781 C 359.101562 148.460938 358.632812 146.898438 358.164062 145.023438 C 357.695312 143.304688 357.226562 141.585938 356.601562 139.714844 C 356.132812 137.839844 355.507812 135.964844 354.882812 134.09375 C 354.257812 132.21875 353.632812 130.34375 352.851562 128.3125 C 352.070312 126.441406 351.289062 124.410156 350.507812 122.378906 C 349.726562 120.347656 348.789062 118.320312 347.851562 116.289062 C 346.917969 114.257812 345.980469 112.074219 344.886719 110.042969 C 340.667969 101.609375 335.511719 92.863281 329.105469 84.277344 C 322.703125 75.6875 315.046875 67.097656 306.296875 58.976562 C 297.394531 51.011719 287.394531 43.515625 276.148438 36.957031 C 264.898438 30.554688 252.402344 24.777344 239.121094 20.871094 C 225.6875 16.96875 211.46875 14.3125 196.628906 13.691406 C 167.101562 12.441406 135.546875 18.53125 107.269531 33.679688 C 78.992188 48.515625 53.996094 72.09375 37.28125 101.140625 C 35.09375 104.734375 33.21875 108.480469 31.34375 112.230469 C 29.625 116.132812 27.75 119.882812 26.34375 123.785156 C 24.785156 127.6875 23.378906 131.75 22.128906 135.652344 C 21.503906 137.683594 21.035156 139.714844 20.410156 141.742188 C 20.097656 142.835938 19.785156 143.773438 19.628906 144.867188 L 18.847656 147.992188 C 14.941406 164.386719 13.535156 181.566406 14.472656 198.429688 C 14.941406 206.863281 16.191406 215.296875 17.753906 223.574219 C 19.472656 231.851562 21.816406 239.972656 24.628906 247.933594 C 27.59375 255.898438 31.03125 263.550781 34.9375 270.890625 C 39 278.230469 43.375 285.257812 48.371094 291.972656 C 68.214844 318.832031 95.238281 339.136719 124.765625 350.691406 C 139.453125 356.625 154.761719 360.21875 169.757812 361.933594 C 184.914062 363.652344 199.910156 363.183594 214.125 361.15625 C 242.871094 356.9375 268.648438 346.007812 289.269531 331.328125 C 309.890625 316.804688 325.667969 299.15625 336.605469 281.980469 C 342.074219 273.390625 346.449219 264.800781 350.039062 256.679688 C 353.476562 248.558594 356.132812 240.75 358.007812 233.722656 C 361.914062 219.511719 363.164062 207.957031 363.632812 200.148438 C 363.789062 198.117188 363.945312 196.402344 363.945312 194.996094 C 363.945312 193.433594 363.945312 192.183594 364.101562 191.246094 C 364.101562 189.21875 364.257812 188.125 364.257812 188.125 C 365.195312 203.273438 364.414062 218.734375 361.445312 233.878906 C 358.476562 249.027344 353.632812 264.019531 346.605469 278.074219 C 335.667969 296.816406 321.296875 313.679688 304.578125 327.421875 C 287.707031 341.164062 268.492188 351.785156 247.871094 358.65625 C 237.558594 362.089844 227.09375 364.589844 216.3125 366.152344 C 205.535156 367.714844 194.753906 368.183594 183.976562 367.871094 C 162.417969 367.089844 140.855469 362.558594 121.015625 354.128906 C 80.710938 337.730469 47.4375 306.339844 28.6875 267.613281 C 19.316406 248.246094 13.378906 227.320312 11.347656 206.082031 C 9.472656 184.6875 11.191406 163.136719 16.816406 142.523438 C 22.285156 121.753906 31.8125 102.234375 44.3125 85.054688 C 56.808594 67.722656 72.429688 52.886719 90.085938 41.019531 C 125.546875 17.4375 169.757812 7.441406 211.625 13.378906 C 232.5625 16.1875 253.027344 22.746094 271.617188 32.898438 C 290.207031 43.046875 306.921875 56.476562 320.671875 72.40625 C 334.417969 88.335938 345.511719 106.605469 352.695312 126.441406 C 360.039062 146.117188 363.632812 167.199219 363.632812 188.125 Z M 363.632812 188.125 " fill-opacity="1" fill-rule="nonzero"/><path fill="#fdb708" d="M 356.757812 188.125 C 356.601562 186.5625 356.757812 180.941406 355.976562 172.039062 C 355.507812 167.511719 354.882812 162.359375 353.632812 156.265625 C 353.320312 154.707031 353.007812 153.144531 352.695312 151.582031 C 352.382812 150.019531 351.914062 148.304688 351.601562 146.742188 C 351.132812 145.023438 350.664062 143.304688 350.195312 141.585938 C 349.726562 139.871094 349.257812 137.996094 348.632812 136.277344 C 348.011719 134.402344 347.386719 132.6875 346.761719 130.65625 C 345.980469 128.78125 345.355469 126.910156 344.574219 124.878906 C 343.792969 122.847656 342.855469 120.972656 342.074219 118.945312 C 341.136719 116.914062 340.355469 114.882812 339.261719 113.007812 C 335.199219 104.890625 330.199219 96.457031 324.109375 88.179688 C 318.015625 79.902344 310.671875 71.625 302.234375 63.972656 C 293.800781 56.320312 283.957031 48.984375 273.179688 42.734375 C 262.398438 36.488281 250.371094 31.023438 237.558594 27.277344 C 224.75 23.527344 211 21.027344 196.785156 20.40625 C 168.507812 19.15625 138.203125 25.089844 111.019531 39.613281 C 83.367188 54.136719 59.308594 76.625 43.21875 104.578125 C 41.1875 108.011719 39.3125 111.605469 37.59375 115.195312 C 35.875 118.945312 34.15625 122.535156 32.75 126.285156 C 31.1875 130.03125 29.9375 133.9375 28.6875 137.683594 C 28.0625 139.558594 27.59375 141.585938 26.96875 143.460938 C 26.65625 144.398438 26.34375 145.335938 26.1875 146.429688 L 25.5625 149.550781 C 21.816406 165.324219 20.410156 181.722656 21.347656 197.964844 C 21.816406 206.082031 22.910156 214.203125 24.472656 222.167969 C 26.1875 230.132812 28.375 237.941406 31.03125 245.59375 C 33.84375 253.246094 37.125 260.585938 40.875 267.613281 C 44.78125 274.640625 48.996094 281.511719 53.683594 287.914062 C 72.742188 313.679688 98.832031 333.199219 127.109375 344.289062 C 141.167969 349.910156 155.855469 353.347656 170.382812 355.0625 C 184.914062 356.625 199.285156 356.3125 213.03125 354.28125 C 240.527344 350.222656 265.367188 339.605469 285.207031 325.707031 C 305.046875 311.804688 320.046875 294.785156 330.667969 278.230469 C 335.980469 269.953125 340.199219 261.679688 343.480469 253.871094 C 346.761719 246.0625 349.257812 238.566406 351.132812 231.851562 C 354.882812 218.265625 355.976562 207.175781 356.445312 199.679688 C 356.601562 197.808594 356.757812 196.089844 356.757812 194.683594 C 356.757812 193.277344 356.757812 192.027344 356.914062 191.089844 C 356.914062 189.21875 356.914062 188.125 356.914062 188.125 C 357.851562 202.648438 357.070312 217.484375 354.257812 232.164062 C 351.445312 246.6875 346.761719 261.210938 340.042969 274.640625 C 329.574219 292.753906 315.671875 308.996094 299.582031 322.113281 C 283.332031 335.386719 264.898438 345.539062 245.058594 352.253906 C 235.214844 355.53125 225.0625 358.03125 214.75 359.59375 C 204.441406 361.15625 193.972656 361.621094 183.664062 361.15625 C 162.886719 360.375 142.261719 356 123.046875 347.878906 C 84.773438 331.953125 52.589844 301.8125 34.625 264.488281 C 25.5625 245.90625 19.941406 225.761719 17.910156 205.300781 C 16.035156 184.84375 17.753906 163.917969 23.222656 144.085938 C 28.53125 124.253906 37.75 105.515625 49.777344 88.960938 C 61.808594 72.40625 76.804688 58.039062 93.835938 46.640625 C 127.890625 23.996094 170.226562 14.3125 210.6875 20.09375 C 230.84375 22.902344 250.527344 29.148438 268.335938 38.988281 C 286.144531 48.671875 302.234375 61.632812 315.515625 76.9375 C 328.792969 92.238281 339.261719 109.886719 346.292969 128.78125 C 353.320312 147.835938 356.757812 167.980469 356.757812 188.125 Z M 356.757812 188.125 " fill-opacity="1" fill-rule="nonzero"/><path fill="#fdb708" d="M 349.882812 188.125 C 349.726562 186.5625 349.882812 181.253906 349.101562 172.664062 C 348.632812 168.449219 348.011719 163.292969 346.917969 157.515625 C 346.761719 156.109375 346.292969 154.550781 345.980469 153.144531 C 345.667969 151.582031 345.199219 150.019531 344.886719 148.460938 C 344.417969 146.898438 343.949219 145.179688 343.480469 143.617188 C 343.011719 141.898438 342.542969 140.183594 341.917969 138.464844 C 341.292969 136.746094 340.667969 134.871094 340.042969 133.15625 C 339.417969 131.4375 338.636719 129.5625 337.855469 127.6875 C 337.230469 125.816406 336.292969 123.941406 335.355469 122.066406 C 334.574219 120.191406 333.636719 118.164062 332.542969 116.289062 C 328.636719 108.480469 323.953125 100.515625 318.015625 92.550781 C 312.234375 84.433594 305.203125 76.625 297.082031 69.128906 C 288.957031 61.789062 279.582031 54.761719 269.273438 48.828125 C 258.804688 42.890625 247.402344 37.582031 235.058594 33.992188 C 222.71875 30.398438 209.597656 27.898438 196.003906 27.433594 C 168.820312 26.183594 139.765625 31.960938 113.675781 45.859375 C 87.585938 59.601562 64.621094 81.308594 49.308594 108.011719 C 47.28125 111.292969 45.71875 114.726562 43.84375 118.164062 C 42.28125 121.753906 40.5625 125.191406 39.15625 128.78125 C 37.59375 132.375 36.5 136.121094 35.25 139.714844 C 34.625 141.585938 34.15625 143.460938 33.6875 145.335938 C 33.375 146.273438 33.0625 147.210938 32.90625 148.148438 L 32.28125 150.957031 C 28.6875 166.105469 27.4375 181.878906 28.21875 197.496094 C 29.9375 228.726562 41.03125 259.179688 59.464844 283.695312 C 77.742188 308.371094 102.738281 327.109375 129.765625 337.886719 C 143.355469 343.351562 157.417969 346.632812 171.320312 348.191406 C 185.226562 349.753906 199.128906 349.285156 212.25 347.566406 C 238.652344 343.664062 262.398438 333.511719 281.457031 320.082031 C 300.519531 306.652344 314.890625 290.410156 325.042969 274.640625 C 330.042969 266.675781 334.105469 258.867188 337.386719 251.371094 C 340.511719 243.875 343.011719 236.691406 344.730469 230.289062 C 348.320312 217.171875 349.414062 206.550781 349.882812 199.367188 C 350.039062 197.496094 350.195312 195.933594 350.195312 194.527344 C 350.195312 193.121094 350.195312 192.027344 350.351562 191.089844 C 350.351562 189.21875 350.351562 188.28125 350.351562 188.28125 C 351.289062 202.179688 350.664062 216.546875 348.007812 230.445312 C 345.355469 244.5 340.980469 258.242188 334.574219 271.359375 C 324.421875 288.695312 311.296875 304.3125 295.675781 316.960938 C 280.050781 329.609375 262.242188 339.449219 243.339844 345.851562 C 233.808594 348.972656 224.125 351.316406 214.125 352.878906 C 204.285156 354.28125 194.128906 354.75 184.289062 354.4375 C 164.289062 353.660156 144.449219 349.441406 126.171875 341.789062 C 89.460938 326.484375 58.527344 297.4375 41.34375 261.679688 C 32.59375 243.875 27.28125 224.511719 25.40625 204.835938 C 23.691406 185.15625 25.40625 165.167969 30.40625 146.117188 C 35.5625 127.066406 44.3125 109.105469 55.871094 93.175781 C 67.433594 77.25 81.804688 63.503906 98.207031 52.574219 C 130.859375 30.867188 171.476562 21.652344 210.21875 27.121094 C 229.59375 29.773438 248.496094 35.863281 265.523438 45.234375 C 282.550781 54.605469 298.019531 66.941406 310.671875 81.621094 C 323.328125 96.300781 333.480469 113.164062 340.199219 131.4375 C 346.605469 149.394531 349.882812 168.761719 349.882812 188.125 Z M 349.882812 188.125 " fill-opacity="1" fill-rule="nonzero"/><path fill="#fdb708" d="M 343.011719 188.125 C 342.855469 186.5625 343.011719 181.566406 342.230469 173.289062 C 341.761719 169.230469 341.136719 164.386719 340.042969 158.765625 C 339.886719 157.359375 339.417969 155.953125 339.105469 154.550781 C 338.792969 153.144531 338.480469 151.582031 338.011719 150.019531 C 337.699219 148.460938 337.074219 146.898438 336.761719 145.335938 C 336.292969 143.773438 335.824219 142.054688 335.199219 140.496094 C 334.574219 138.777344 334.105469 137.058594 333.480469 135.339844 C 332.855469 133.625 332.074219 131.90625 331.449219 130.03125 C 330.824219 128.15625 329.886719 126.441406 329.105469 124.566406 C 328.324219 122.691406 327.542969 120.816406 326.449219 119.101562 C 322.703125 111.605469 318.171875 103.953125 312.546875 96.300781 C 306.921875 88.648438 300.207031 81.152344 292.394531 73.96875 C 284.582031 66.941406 275.679688 60.226562 265.679688 54.605469 C 255.683594 48.828125 244.746094 43.984375 233.027344 40.394531 C 221.3125 36.957031 208.660156 34.617188 195.691406 34.148438 C 169.601562 33.054688 141.949219 38.363281 116.957031 51.792969 C 91.960938 64.910156 69.933594 85.679688 55.246094 111.292969 C 53.371094 114.414062 51.808594 117.851562 50.089844 121.128906 C 48.527344 124.566406 46.96875 127.84375 45.71875 131.28125 C 44.3125 134.714844 43.21875 138.308594 41.96875 141.742188 C 41.34375 143.460938 40.875 145.335938 40.40625 147.054688 C 40.09375 147.992188 39.9375 148.769531 39.625 149.707031 L 39 152.363281 C 35.5625 166.886719 34.3125 181.878906 35.09375 196.871094 C 36.65625 226.695312 47.4375 255.898438 64.933594 279.480469 C 82.429688 303.21875 106.332031 321.175781 132.265625 331.328125 C 145.230469 336.480469 158.667969 339.605469 171.945312 341.164062 C 185.226562 342.570312 198.503906 342.257812 211.15625 340.539062 C 236.464844 336.792969 259.273438 327.109375 277.398438 314.304688 C 295.675781 301.5 309.421875 285.882812 319.109375 270.734375 C 323.953125 263.082031 327.855469 255.585938 330.980469 248.402344 C 333.949219 241.21875 336.292969 234.347656 338.011719 228.101562 C 341.449219 215.609375 342.542969 205.457031 343.011719 198.585938 C 343.167969 196.871094 343.324219 195.308594 343.324219 194.058594 C 343.324219 192.808594 343.324219 191.558594 343.480469 190.78125 C 343.480469 189.0625 343.480469 188.125 343.480469 188.125 C 344.417969 201.554688 343.792969 215.140625 341.292969 228.570312 C 338.792969 242 334.574219 255.273438 328.480469 267.769531 C 318.796875 284.476562 306.140625 299.3125 291.144531 311.496094 C 276.148438 323.675781 259.117188 333.042969 240.996094 339.136719 C 231.9375 342.257812 222.5625 344.445312 213.03125 345.851562 C 203.503906 347.253906 193.972656 347.722656 184.289062 347.253906 C 165.070312 346.632812 146.167969 342.570312 128.515625 335.074219 C 93.367188 320.394531 63.683594 292.597656 47.125 258.242188 C 38.84375 241.21875 33.6875 222.636719 31.8125 203.742188 C 30.09375 184.84375 31.8125 165.636719 36.65625 147.523438 C 41.5 129.25 49.933594 112.074219 61.027344 96.769531 C 72.117188 81.464844 85.867188 68.347656 101.644531 57.882812 C 133.046875 37.113281 171.945312 28.210938 208.972656 33.523438 C 227.5625 36.019531 245.527344 41.800781 261.929688 50.855469 C 278.335938 60.070312 293.019531 71.9375 305.203125 85.992188 C 317.390625 100.046875 327.074219 116.289062 333.480469 133.625 C 339.886719 151.113281 343.011719 169.542969 343.011719 188.125 Z M 343.011719 188.125 " fill-opacity="1" fill-rule="nonzero"/></svg>